<svg width="1792" height="1792" xmlns="http://www.w3.org/2000/svg">

 <g>
  <title>background</title>
  <rect fill="none" id="canvas_background" height="402" width="582" y="-1" x="-1"/>
 </g>
 <g>
  <title>Layer 1</title>
  <path fill="#b58900" stroke="null" id="svg_1" d="m677.827004,1378.118534q0,76.952894 -108.390712,76.952894q-124.707593,0 -124.707593,-73.455035q0,-74.620988 114.218169,-74.620988q118.880135,0 118.880135,71.123129zm-41.957695,-543.334069q0,99.106 -86.246373,99.106q-89.742847,0 -89.742847,-97.940047q0,-104.935764 89.742847,-104.935764q41.957695,0 64.102034,29.7318t22.144339,74.038012zm193.471593,-87.44647l0,-145.744117q-90.908339,33.812635 -157.341356,33.812635q-58.274576,-33.812635 -128.204067,-33.812635q-100.232271,0 -168.996271,66.459317t-68.764,166.73127q0,58.297647 34.382,118.9272t85.663627,78.118847l0,3.497859q-44.288678,19.8212 -44.288678,99.106q0,61.795506 47.785152,89.778376l0,3.497859q-131.700542,43.140259 -131.700542,162.067458q0,52.467882 23.30983,91.527306t62.936542,59.4636t83.91539,29.7318t94.404813,9.327624q261.070101,0 261.070101,-219.199152q0,-78.118847 -55.943593,-115.429341t-146.851932,-53.633835q-31.468271,-5.829765 -60.022813,-23.902035t-28.554542,-46.055141q0,-51.301929 57.109085,-60.629553q89.742847,-17.489294 142.189966,-81.616706t52.447119,-156.237694q0,-27.982871 -11.654915,-60.629553q43.123186,-10.493576 57.109085,-15.157388zm68.764,488.534281l159.672339,0q-2.330983,-31.480729 -2.330983,-95.608141l0,-451.223787q0,-53.633835 2.330983,-80.450753l-159.672339,0q3.496475,26.816918 3.496475,82.782659l0,457.053552q0,58.297647 -3.496475,87.44647zm593.235185,-18.655247l0,-141.080306q-34.964746,24.485012 -79.253424,24.485012q-61.771051,0 -61.771051,-95.608141l0,-262.339411l60.605559,0q10.489424,0 30.885525,1.165953t30.885525,1.165953l0,-136.416494l-122.37661,0q0,-95.608141 3.496475,-118.9272l-163.168813,0q4.661966,27.982871 4.661966,64.127412l0,54.799788l-69.929491,0l0,136.416494q41.957695,-3.497859 43.123186,-3.497859q3.496475,0 12.820407,0.582976t13.985898,0.582976l0,2.331906l-2.330983,0l0,253.011788q0,43.140259 2.913729,74.620988t13.403153,65.876341t28.554542,56.548718t50.698881,36.144541t76.92244,13.991435q74.591457,0 125.873084,-27.982871zm-414.914982,-823.162774q0,-41.974306 -27.971797,-74.038012t-69.929491,-32.063706t-70.512237,31.480729t-28.554542,74.620988q0,41.974306 29.137288,72.872059t69.929491,30.897753t69.346746,-31.480729t28.554542,-72.289082zm713.280812,-55.965741l0,1119.314821q0,138.7484 -98.484034,237.271423t-237.177525,98.523023l-1118.871862,0q-138.693491,0 -237.177525,-98.523023t-98.484034,-237.271423l0,-1119.314821q0,-138.7484 98.484034,-237.271423t237.177525,-98.523023l1118.871862,0q138.693491,0 237.177525,98.523023t98.484034,237.271423z"/>
 </g>
</svg>