<svg width="1792" height="1792" xmlns="http://www.w3.org/2000/svg">

 <g>
  <title>background</title>
  <rect fill="none" id="canvas_background" height="402" width="582" y="-1" x="-1"/>
 </g>
 <g>
  <title>Layer 1</title>
  <path stroke="#b58900" id="svg_1" d="m678.734385,1377.255149q0,77.094266 -108.632827,77.094266q-124.986156,0 -124.986156,-73.589981q0,-74.758076 114.473302,-74.758076q119.145681,0 119.145681,71.253791zm-42.051417,-544.332239q0,99.288069 -86.439024,99.288069q-89.943308,0 -89.943308,-98.119974q0,-105.128544 89.943308,-105.128544q42.051417,0 64.24522,29.786421t22.193803,74.174028zm193.903756,-87.60712l0,-146.011867q-91.111403,33.874753 -157.692813,33.874753q-58.404746,-33.874753 -128.49044,-33.874753q-100.456163,0 -169.373762,66.581411t-68.9176,167.037575q0,58.404747 34.4588,119.145683t85.854976,78.262361l0,3.504285q-44.387607,19.857614 -44.387607,99.288069q0,61.909031 47.891891,89.94331l0,3.504285q-131.994725,43.219513 -131.994725,162.365196q0,52.564272 23.361898,91.695452t63.077125,59.572842t84.102834,29.786421t94.615688,9.344759q261.653261,0 261.653261,-219.601847q0,-78.262361 -56.068556,-115.641398t-147.179959,-53.732367q-31.538563,-5.840475 -60.156888,-23.945946t-28.618325,-46.13975q0,-51.396177 57.236651,-60.740937q89.943308,-17.521424 142.507579,-81.766645t52.564271,-156.524721q0,-28.034278 -11.680949,-60.740937q43.219512,-10.512854 57.236651,-15.185234zm68.9176,489.431777l160.029003,0q-2.33619,-31.538563 -2.33619,-95.783785l0,-452.052739q0,-53.732367 2.33619,-80.59855l-160.029003,0q3.504285,26.866183 3.504285,82.93474l0,457.893214q0,58.404747 -3.504285,87.60712zm594.560311,-18.689519l0,-141.339487q-35.042847,24.529994 -79.430454,24.529994q-61.90903,0 -61.90903,-95.783785l0,-262.82136l60.740936,0q10.512854,0 30.954515,1.168095t30.954515,1.168095l0,-136.667107l-122.649966,0q0,-95.783785 3.504285,-119.145683l-163.533288,0q4.67238,28.034278 4.67238,64.245221l0,54.900462l-70.085695,0l0,136.667107q42.051417,-3.504285 43.219512,-3.504285q3.504285,0 12.849044,0.584047t14.017139,0.584047l0,2.33619l-2.33619,0l0,253.4766q0,43.219513 2.920237,74.758076t13.433092,65.997364t28.618325,56.652604t50.812129,36.210943t77.094264,14.017139q74.758074,0 126.154251,-28.034278zm-415.841789,-824.675023q0,-42.051418 -28.034278,-74.174028t-70.085695,-32.122611t-70.669742,31.538563t-28.618325,74.758076q0,42.051418 29.202373,73.005933t70.085695,30.954516t69.501647,-31.538563t28.618325,-72.421886zm714.874087,-56.068557l0,1121.371136q0,139.003297 -98.70402,237.707319t-237.707315,98.704022l-1121.371117,0q-139.003295,0 -237.707315,-98.704022t-98.70402,-237.707319l0,-1121.371136q0,-139.003297 98.70402,-237.707319t237.707315,-98.704022l1121.371117,0q139.003295,0 237.707315,98.704022t98.70402,237.707319z"/>
 </g>
</svg>